<svg version="1.1" width="512" height="512" viewBox="0 0 97.75 97.75" xmlns="http://www.w3.org/2000/svg" xmlns:xlink="http://www.w3.org/1999/xlink" id="Capa_1" overflow="hidden"><g><path d=" M 48.875 0 C 21.883 0 0 21.883 0 48.875 C 0 75.867 21.883 97.75 48.875 97.75 C 75.867 97.75 97.75 75.867 97.75 48.875 C 97.75 21.883 75.867 0 48.875 0 Z M 77.691 37.503 C 74.912 43.783 66.412 63.674 60.74 76.639 C 60.732 76.645 59.254 76.636 59.25 76.634 L 50.305 55.565 C 46.76 62.518 42.832 69.746 39.473 76.624 C 39.453 76.659 37.848 76.64 37.846 76.618 C 32.711 64.632 27.387 52.725 22.225 40.748 C 21.03 37.82 16.838 33.111 13.969 33.138 C 13.969 32.798 13.953 32.039 13.949 31.58 L 31.631 31.578 L 31.617 33.109 C 29.541 33.205 25.953 34.53 26.883 36.822 C 29.375 42.203 38.199 63.049 40.584 68.341 C 42.248 65.084 46.895 56.402 48.809 52.732 C 47.309 49.654 42.352 38.162 40.866 35.268 C 39.745 33.381 36.932 33.15 34.766 33.117 C 34.766 32.634 34.791 32.262 34.782 31.599 L 50.325 31.647 L 50.325 33.059 C 48.221 33.117 46.229 33.9 47.132 35.912 C 49.223 40.252 50.444 43.342 52.363 47.356 C 52.976 46.18 56.118 39.734 57.616 36.332 C 58.521 34.07 57.169 33.223 53.384 33.121 C 53.434 32.749 53.401 32.002 53.434 31.646 L 66.858 31.659 L 66.864 33.06 C 64.397 33.156 61.843 34.47 60.51 36.51 L 54.046 49.916 C 54.755 51.689 60.97 65.496 61.624 67.027 L 74.988 36.18 C 74.037 33.683 71.004 33.125 69.818 33.098 C 69.826 32.7 69.828 32.093 69.83 31.586 L 83.781 31.626 L 83.801 31.696 L 83.778 33.09 C 80.717 33.183 78.824 34.82 77.691 37.503 Z" fill="#006DF0"/></g><g></g><g></g><g></g><g></g><g></g><g></g><g></g><g></g><g></g><g></g><g></g><g></g><g></g><g></g><g></g></svg>